<svg xmlns="http://www.w3.org/2000/svg" viewBox="0 0 300 200" width="300" height="200">
	<style>
		tspan { white-space:pre }
	</style>
	<path id="NBA " fill="#618685" d="M21.28 73.69L26 73.1L30.12 76.64Q30.12 74.87 31.3 74.87L31.89 74.87L40.14 96.08L40.14 97.26L39.55 97.26L38.37 93.73L37.78 93.73L37.78 94.91L41.91 104.92L42.5 104.92Q44.85 89.6 49.29 72.93L51.06 74.1L52.83 73.52L56.36 75.28L56.36 75.87Q54.6 75.87 54.6 78.23L55.19 78.23L55.77 78.82L56.36 78.82L56.95 75.87L58.13 75.87L58.13 76.46L57.54 77.05L58.13 77.64L58.13 78.23Q53.69 91.85 50.16 117.3L48.98 117.3L50.16 107.87Q48.98 107.87 46.62 119.07Q44.44 120.84 42.5 120.84L42.5 122.02L41.91 122.02Q41.91 120.84 39.55 120.84L39.55 116.71Q39.55 114.04 27.76 87.24L27.17 87.24Q24.82 97.75 23.05 115.53L22.46 114.94Q18.92 115.98 18.92 117.89L17.74 117.89Q16.57 115.67 16.57 110.23L15.98 110.23L15.98 115.53L14.8 115.53L14.21 112.59Q14.21 96.57 21.28 73.69ZM18.33 87.83L17.74 87.83L17.74 88.42L18.33 89.01L17.74 89.6L17.74 90.78L18.33 90.78L18.92 88.42L18.33 87.83ZM41.91 102.57L40.14 97.26Q41.67 97.26 42.5 101.98L42.5 102.57L41.91 102.57ZM82.33 72.23L82.47 71.05L85.31 71.96L85.24 72.54L82.33 72.23ZM71.2 70.98L72.83 72.37L78.24 71.78L78.76 72.44L79.35 72.51L81.15 72.13Q91.07 73.17 95.47 81.97Q96.65 82.11 96.34 85.03L95.89 89.15L94.71 89.01L94.78 88.42L95.57 86.72L95.05 86.07L95.68 85.55L95.16 84.89L94.01 84.78Q93.63 88.15 87.29 91.75L87.22 92.34L87.81 92.38Q90.03 92.65 94.01 90.12L93.91 91.3L90.55 94.49Q93.81 94.84 100.08 104.99Q99.39 111.44 80.84 118.31Q72.9 122.15 68.6 121.7L67.56 120.35L66.97 120.32Q66.8 122.09 64.44 121.81Q64.23 123.44 63.26 123.44L63.06 123.44Q61.88 123.3 62.36 119.21L61.77 119.17L60.87 122.02L60.28 121.95Q60.91 116.12 59.14 115.95L58.83 113.52L59.48 113L58.93 112.34L64.65 87.45L64.13 86.83L64.72 86.9L64.2 86.27L65.76 77.54L65.79 76.95L65.07 72.72L65.66 72.75Q68.95 70.95 70.82 70.95Q71.03 70.95 71.2 70.98ZM88.15 78.82L85.21 78.47L85.14 79.06L89.78 80.17Q89.89 78.99 88.15 78.82ZM73.87 84.33L74.04 88.49L79.42 87.9L79.31 89.08L88.02 85.3L87.95 85.89L83.47 88.94Q90.79 86.93 91.34 82.11L90.17 81.97Q89.82 84.89 88.09 84.71L88.19 83.53L87.6 83.5L88.4 81.77L88.92 82.43L89.51 82.53L89.58 81.94Q87.43 79.89 82.71 79.41Q74.53 78.47 73.87 84.33ZM85.66 85.06L87.6 83.5L87.57 84.09L86.25 85.09L85.66 85.06ZM88.99 97.85L84.9 97.44L84.86 97.99L90.62 99.24L91.21 99.27L91.27 98.68L88.99 97.85ZM82.37 98.89L71.65 99.52L69.88 109.99L70.4 110.65L70.99 110.71Q75.22 111.2 90.17 103.33L91.48 102.29Q91.38 99.9 87.05 99.45L82.37 98.89ZM93.32 101.91L92.73 101.8L91.31 104.06L93.84 102.57L93.32 101.91ZM97.17 104.68L96.58 104.61Q96.37 106.45 84.93 113.42Q97.97 108.22 98.24 105.41L97.65 105.34L97.17 104.68ZM123.55 70.12Q123.93 71.89 128.27 71.89L132.98 92.51L137.11 92.51L137.11 93.1L133.57 93.69L133.57 94.28Q135.34 94.28 135.34 95.46L140.05 95.46L140.05 96.05Q140.05 97.37 134.16 98.41L135.34 101.94L134.75 103.71L135.34 107.25L134.75 107.84L135.34 107.84L134.75 108.43L135.34 115.5L135.34 119.03L134.75 118.45L134.16 118.45L135.93 127.29L134.75 127.29Q134.75 125.52 133.57 125.52L133.57 126.11L134.16 127.88L133.57 127.88L132.98 127.29L132.39 127.29Q132.39 129.05 131.21 129.05L128.27 119.03L127.68 119.03L127.68 121.39L127.09 121.39L125.91 114.32L127.68 115.5L127.68 114.91Q127.19 109.6 125.91 109.6L126.5 109.02L126.5 107.25L125.32 107.25L125.32 109.02L124.73 109.02L124.73 106.66L125.32 106.07L124.73 106.07L124.14 106.66L124.14 104.3L124.73 104.3L125.32 104.89L125.91 104.89L125.32 104.3L125.32 100.76L112.35 103.71L112.35 104.89L116.48 103.71L118.84 104.3L121.78 103.71L121.78 104.89Q109.41 107.11 109.41 110.78Q107.85 117.27 105.87 119.03L105.87 120.21L104.1 120.21L103.51 119.62L102.92 119.62L102.92 120.21L101.16 119.03L102.33 115.5L101.74 115.5Q99.98 115.5 99.98 120.21L98.8 119.03L99.39 115.5L97.62 113.73L107.64 89.57L108.23 89.57Q108.23 91.33 109.41 91.33L110 88.39L109.41 88.98L108.82 88.98L108.82 86.62L109.41 83.67L110 84.26L110.58 84.26L110 83.67L110 83.08L111.17 80.73L111.76 80.73L112.35 81.32L112.94 81.32L112.94 80.73Q112.94 79.55 111.17 79.55L114.12 71.3L116.48 71.3L115.89 71.89L115.89 72.48Q119.98 70.12 123.55 70.12ZM120.6 83.67L120.01 83.67L115.3 96.05L116.48 96.05Q122.37 96.05 122.96 92.51L120.6 83.67ZM115.3 87.21L114.71 87.21L113.53 91.33L112.94 90.75L112.35 90.75L112.94 93.1L113.53 93.1L115.3 87.8L115.3 87.21ZM108.82 92.51L108.23 92.51L107.64 93.1L107.64 94.28L108.23 94.28L108.82 92.51ZM112.35 94.87L111.76 94.87L111.17 97.23L111.76 97.23L112.35 96.64L112.35 94.87ZM107.64 95.46L106.46 95.46L105.87 97.82L106.46 97.82L107.64 95.46ZM122.37 96.05L116.48 97.23L116.48 97.82L117.66 97.82Q122.96 97.23 122.96 96.05L122.37 96.05ZM125.32 113.73L124.73 110.19L125.91 110.19L125.91 113.73L125.32 113.73ZM133.57 114.32L132.98 114.32L132.98 115.5L133.57 117.86L134.16 117.86L134.16 116.68L133.57 114.32ZM128.85 115.5L127.09 116.09L127.09 117.27L128.85 116.68L128.85 115.5Z" />
	<path id="Statistics " fill="#000000" d="M148.64 104.6Q151.82 105.62 153.37 107.37Q154.92 109.12 154.92 111.74Q154.92 114.07 153.75 115.8Q152.61 117.53 150.45 118.47Q148.31 119.41 145.45 119.41Q143.24 119.41 141.31 118.87Q139.4 118.31 138.03 117.27Q137.68 114.84 137.68 112.86Q137.68 112.12 137.78 111L139.63 111L141.87 116.18Q143.97 117.02 146.03 117.02Q148.26 117.02 149.48 116.03Q150.7 115.01 150.7 113.13Q150.7 111.59 149.76 110.62Q148.82 109.63 146.71 109L144.23 108.21Q140.98 107.17 139.38 105.39Q137.8 103.61 137.8 100.95Q137.8 98.69 138.87 96.99Q139.96 95.29 141.94 94.37Q143.95 93.46 146.64 93.46Q148.39 93.46 150.07 93.86Q151.77 94.24 153.19 94.98Q153.49 96.99 153.49 98.99Q153.49 99.53 153.44 100.49L151.49 100.49L149.79 96.55Q147.78 95.84 146.05 95.84Q144.05 95.84 142.98 96.78Q141.92 97.72 141.92 99.47Q141.92 101.07 142.91 102.09Q143.9 103.11 146.16 103.82L148.64 104.6ZM136 121.54L157.67 121.54L157.67 122.81L136 122.81ZM166.93 116.51Q168.07 116.51 169.85 116.08L169.69 118.26Q168.8 118.77 167.66 119.05Q166.54 119.3 165.35 119.3Q162.76 119.3 161.49 118.04Q160.22 116.74 160.22 114.1L160.22 102.5L157.02 102.5L157.2 100.46Q158.67 100.11 160.45 100.06L161.39 95.23L164.29 95.23L164.29 100.06L169.74 100.06L169.54 102.5L164.29 102.5L164.29 113.34Q164.29 115.01 164.89 115.78Q165.53 116.51 166.93 116.51ZM156.64 121.54L171.41 121.54L171.41 122.81L156.64 122.81ZM186.55 116.59L189.09 117.32L188.96 118.8Q186.88 119.13 183.61 119.08L183.05 116.97Q180.48 119.38 177.39 119.38Q174.97 119.38 173.55 118.01Q172.13 116.61 172.13 114.28Q172.13 111.71 173.93 110.09Q175.76 108.46 179.47 107.68L182.69 107.02L182.69 105.59Q182.69 103.77 181.83 102.88Q180.97 101.99 179.19 101.99Q178.07 101.99 176.96 102.34L175.46 105.52L173.3 105.52Q173.22 103.33 173.55 101.53Q175.2 100.62 177.06 100.13Q178.91 99.63 180.74 99.63Q183.76 99.63 185.23 101.05Q186.71 102.45 186.71 105.31Q186.71 107.27 186.63 110.39Q186.6 111.79 186.58 113.19Q186.55 114.56 186.55 115.65L186.55 116.59ZM176.27 113.19Q176.27 114.81 177.01 115.67Q177.77 116.54 179.16 116.54Q180.69 116.54 182.59 115.47L182.69 109.15L180.23 109.45Q178.12 109.73 177.18 110.62Q176.27 111.48 176.27 113.19ZM170.71 121.54L191.02 121.54L191.02 122.81L170.71 122.81ZM200.34 116.51Q201.48 116.51 203.26 116.08L203.11 118.26Q202.22 118.77 201.08 119.05Q199.96 119.3 198.77 119.3Q196.18 119.3 194.91 118.04Q193.64 116.74 193.64 114.1L193.64 102.5L190.44 102.5L190.62 100.46Q192.09 100.11 193.87 100.06L194.8 95.23L197.7 95.23L197.7 100.06L203.16 100.06L202.96 102.5L197.7 102.5L197.7 113.34Q197.7 115.01 198.31 115.78Q198.94 116.51 200.34 116.51ZM190.06 121.54L204.83 121.54L204.83 122.81L190.06 122.81ZM212.4 116.79L215.24 117.43L215.12 119L205.6 119L205.72 117.48Q206.81 116.97 208.34 116.61L208.34 103.66L205.44 102.27L205.54 101.2Q207.93 100.13 211.28 99.83L212.4 99.83L212.4 116.79ZM209.99 96.55Q208.74 96.55 208.01 95.84Q207.3 95.13 207.3 93.91Q207.3 92.7 208.01 91.98Q208.74 91.27 209.99 91.27Q211.23 91.27 211.94 91.98Q212.68 92.7 212.68 93.91Q212.68 95.13 211.94 95.84Q211.23 96.55 209.99 96.55ZM204.12 121.54L216.92 121.54L216.92 122.81L204.12 122.81ZM226.7 107.83Q229.16 108.62 230.35 109.99Q231.54 111.36 231.54 113.39Q231.54 115.22 230.63 116.59Q229.72 117.93 228.02 118.67Q226.31 119.41 224.05 119.41Q222.35 119.41 220.83 119Q219.31 118.57 218.19 117.78Q217.83 116.23 217.83 114.18Q217.83 113.44 217.86 113.08L219.84 113.08L221.49 116.56Q222.91 117.17 224.46 117.17Q226.04 117.17 226.87 116.51Q227.74 115.83 227.74 114.56Q227.74 113.54 227.1 112.88Q226.49 112.22 225.1 111.76L223.01 111.1Q220.53 110.32 219.31 108.95Q218.09 107.55 218.09 105.47Q218.09 103.71 218.93 102.39Q219.79 101.07 221.34 100.36Q222.91 99.65 224.99 99.65Q226.37 99.65 227.69 99.96Q229.01 100.26 230.1 100.82Q230.53 102.75 230.45 105.06L228.37 105.06L227.08 102.32Q225.73 101.89 224.59 101.89Q223.24 101.89 222.51 102.52Q221.79 103.13 221.79 104.3Q221.79 105.34 222.46 106.03Q223.12 106.69 224.61 107.17L226.7 107.83ZM216.31 121.54L233.96 121.54L233.96 122.81L216.31 122.81ZM243.4 116.51Q244.54 116.51 246.32 116.08L246.17 118.26Q245.28 118.77 244.14 119.05Q243.02 119.3 241.83 119.3Q239.24 119.3 237.97 118.04Q236.7 116.74 236.7 114.1L236.7 102.5L233.5 102.5L233.68 100.46Q235.15 100.11 236.93 100.06L237.87 95.23L240.76 95.23L240.76 100.06L246.22 100.06L246.02 102.5L240.76 102.5L240.76 113.34Q240.76 115.01 241.37 115.78Q242.01 116.51 243.4 116.51ZM233.12 121.54L247.89 121.54L247.89 122.81L233.12 122.81ZM255.46 116.79L258.31 117.43L258.18 119L248.66 119L248.79 117.48Q249.88 116.97 251.4 116.61L251.4 103.66L248.51 102.27L248.61 101.2Q250.99 100.13 254.35 99.83L255.46 99.83L255.46 116.79ZM253.05 96.55Q251.81 96.55 251.07 95.84Q250.36 95.13 250.36 93.91Q250.36 92.7 251.07 91.98Q251.81 91.27 253.05 91.27Q254.29 91.27 255.01 91.98Q255.74 92.7 255.74 93.91Q255.74 95.13 255.01 95.84Q254.29 96.55 253.05 96.55ZM247.19 121.54L259.98 121.54L259.98 122.81L247.19 122.81ZM271.54 116.46Q273.97 116.46 276.49 115.52L276.31 117.91Q275.14 118.62 273.54 119.03Q271.97 119.41 270.19 119.41Q265.75 119.41 263.33 116.94Q260.95 114.48 260.95 109.91Q260.95 106.79 262.06 104.45Q263.18 102.12 265.24 100.87Q267.32 99.6 270.09 99.6Q271.56 99.6 272.96 99.96Q274.38 100.31 275.55 100.97Q275.9 102.52 275.9 104.58Q275.9 105.29 275.88 105.67L273.85 105.67L272.3 102.45Q270.93 101.96 269.81 101.96Q267.7 101.96 266.56 103.79Q265.42 105.59 265.42 108.97Q265.42 112.75 266.91 114.61Q268.44 116.46 271.54 116.46ZM259.37 121.54L278.52 121.54L278.52 122.81L259.37 122.81ZM287.99 107.83Q290.45 108.62 291.64 109.99Q292.84 111.36 292.84 113.39Q292.84 115.22 291.92 116.59Q291.01 117.93 289.31 118.67Q287.61 119.41 285.35 119.41Q283.65 119.41 282.12 119Q280.6 118.57 279.48 117.78Q279.13 116.23 279.13 114.18Q279.13 113.44 279.15 113.08L281.13 113.08L282.78 116.56Q284.21 117.17 285.75 117.17Q287.33 117.17 288.17 116.51Q289.03 115.83 289.03 114.56Q289.03 113.54 288.39 112.88Q287.79 112.22 286.39 111.76L284.31 111.1Q281.82 110.32 280.6 108.95Q279.38 107.55 279.38 105.47Q279.38 103.71 280.22 102.39Q281.08 101.07 282.63 100.36Q284.21 99.65 286.29 99.65Q287.66 99.65 288.98 99.96Q290.3 100.26 291.39 100.82Q291.82 102.75 291.75 105.06L289.66 105.06L288.37 102.32Q287.02 101.89 285.88 101.89Q284.54 101.89 283.8 102.52Q283.09 103.13 283.09 104.3Q283.09 105.34 283.75 106.03Q284.41 106.69 285.91 107.17L287.99 107.83ZM277.6 121.54L295.25 121.54L295.25 122.81L277.6 122.81Z" />
</svg>