<svg xmlns="http://www.w3.org/2000/svg" viewBox="0 0 200 100" width="120" height="60">
	<style>
		tspan { white-space:pre }
	</style>
	<path id="NBA " fill="#618685" d="M16.13 25.09L19.45 24.68L22.35 27.17Q22.35 25.92 23.18 25.92L23.6 25.92L29.41 40.86L29.41 41.69L28.99 41.69L28.16 39.2L27.75 39.2L27.75 40.03L30.65 47.09L31.07 47.09Q32.73 36.3 35.85 24.55L37.1 25.38L38.34 24.97L40.83 26.21L40.83 26.63Q39.59 26.63 39.59 28.29L40 28.29L40.42 28.7L40.83 28.7L41.25 26.63L42.08 26.63L42.08 27.04L41.66 27.46L42.08 27.87L42.08 28.29Q38.95 37.88 36.46 55.8L35.63 55.8L36.46 49.16Q35.63 49.16 33.97 57.05Q32.44 58.29 31.07 58.29L31.07 59.12L30.65 59.12Q30.65 58.29 28.99 58.29L28.99 55.39Q28.99 53.51 20.69 34.64L20.28 34.64Q18.62 42.03 17.37 54.56L16.96 54.14Q14.47 54.88 14.47 56.22L13.64 56.22Q12.81 54.66 12.81 50.82L12.39 50.82L12.39 54.56L11.56 54.56L11.15 52.48Q11.15 41.2 16.13 25.09ZM14.05 35.05L13.64 35.05L13.64 35.47L14.05 35.88L13.64 36.3L13.64 37.13L14.05 37.13L14.47 35.47L14.05 35.05ZM30.65 45.43L29.41 41.69Q30.48 41.69 31.07 45.01L31.07 45.43L30.65 45.43ZM59.12 24.07L59.22 23.24L61.22 23.87L61.17 24.29L59.12 24.07ZM51.28 23.19L52.43 24.16L56.24 23.75L56.61 24.21L57.02 24.26L58.29 23.99Q65.27 24.72 68.37 30.93Q69.2 31.02 68.98 33.07L68.67 35.98L67.84 35.88L67.88 35.47L68.45 34.27L68.08 33.81L68.52 33.44L68.15 32.98L67.35 32.9Q67.08 35.27 62.61 37.81L62.56 38.23L62.98 38.25Q64.54 38.45 67.35 36.66L67.27 37.49L64.91 39.74Q67.2 39.98 71.62 47.14Q71.13 51.68 58.07 56.51Q52.48 59.22 49.45 58.9L48.72 57.95L48.3 57.93Q48.18 59.17 46.52 58.98Q46.38 60.13 45.69 60.13L45.55 60.13Q44.72 60.03 45.06 57.15L44.64 57.12L44.01 59.12L43.59 59.08Q44.03 54.97 42.79 54.85L42.57 53.14L43.03 52.78L42.64 52.31L46.67 34.78L46.3 34.34L46.72 34.39L46.35 33.95L47.45 27.8L47.47 27.39L46.96 24.41L47.38 24.43Q49.7 23.16 51.01 23.16Q51.16 23.16 51.28 23.19ZM63.22 28.7L61.15 28.46L61.1 28.88L64.37 29.66Q64.44 28.83 63.22 28.7ZM53.16 32.59L53.29 35.52L57.07 35.1L57 35.93L63.12 33.27L63.08 33.68L59.93 35.83Q65.08 34.42 65.47 31.02L64.64 30.93Q64.39 32.98 63.17 32.85L63.25 32.02L62.83 32L63.39 30.78L63.76 31.24L64.17 31.32L64.22 30.9Q62.71 29.46 59.39 29.12Q53.63 28.46 53.16 32.59ZM61.46 33.1L62.83 32L62.81 32.42L61.88 33.12L61.46 33.1ZM63.81 42.11L60.93 41.81L60.9 42.21L64.96 43.08L65.37 43.11L65.42 42.69L63.81 42.11ZM59.14 42.84L51.6 43.28L50.36 50.65L50.72 51.12L51.14 51.17Q54.12 51.51 64.64 45.96L65.57 45.23Q65.49 43.55 62.44 43.23L59.14 42.84ZM66.86 44.96L66.44 44.89L65.44 46.48L67.23 45.43L66.86 44.96ZM69.57 46.92L69.15 46.87Q69.01 48.16 60.95 53.07Q70.13 49.41 70.33 47.43L69.91 47.38L69.57 46.92ZM88.15 22.58Q88.42 23.82 91.47 23.82L94.79 38.35L97.69 38.35L97.69 38.76L95.2 39.18L95.2 39.59Q96.45 39.59 96.45 40.42L99.77 40.42L99.77 40.84Q99.77 41.77 95.62 42.5L96.45 44.99L96.03 46.23L96.45 48.72L96.03 49.14L96.45 49.14L96.03 49.55L96.45 54.53L96.45 57.02L96.03 56.61L95.62 56.61L96.86 62.83L96.03 62.83Q96.03 61.59 95.2 61.59L95.2 62L95.62 63.25L95.2 63.25L94.79 62.83L94.37 62.83Q94.37 64.08 93.54 64.08L91.47 57.02L91.05 57.02L91.05 58.68L90.64 58.68L89.81 53.7L91.05 54.53L91.05 54.12Q90.71 50.38 89.81 50.38L90.22 49.97L90.22 48.72L89.39 48.72L89.39 49.97L88.98 49.97L88.98 48.31L89.39 47.89L88.98 47.89L88.56 48.31L88.56 46.65L88.98 46.65L89.39 47.06L89.81 47.06L89.39 46.65L89.39 44.16L80.26 46.23L80.26 47.06L83.17 46.23L84.83 46.65L86.9 46.23L86.9 47.06Q78.19 48.63 78.19 51.21Q77.09 55.78 75.7 57.02L75.7 57.85L74.45 57.85L74.04 57.44L73.62 57.44L73.62 57.85L72.38 57.02L73.21 54.53L72.79 54.53Q71.55 54.53 71.55 57.85L70.72 57.02L71.13 54.53L69.89 53.29L76.94 36.27L77.36 36.27Q77.36 37.52 78.19 37.52L78.6 35.44L78.19 35.86L77.77 35.86L77.77 34.2L78.19 32.12L78.6 32.54L79.02 32.54L78.6 32.12L78.6 31.71L79.43 30.05L79.85 30.05L80.26 30.46L80.68 30.46L80.68 30.05Q80.68 29.22 79.43 29.22L81.51 23.41L83.17 23.41L82.75 23.82L82.75 24.24Q85.63 22.58 88.15 22.58ZM86.07 32.12L85.66 32.12L82.34 40.84L83.17 40.84Q87.32 40.84 87.73 38.35L86.07 32.12ZM82.34 34.61L81.92 34.61L81.09 37.52L80.68 37.1L80.26 37.1L80.68 38.76L81.09 38.76L82.34 35.03L82.34 34.61ZM77.77 38.35L77.36 38.35L76.94 38.76L76.94 39.59L77.36 39.59L77.77 38.35ZM80.26 40.01L79.85 40.01L79.43 41.67L79.85 41.67L80.26 41.25L80.26 40.01ZM76.94 40.42L76.11 40.42L75.7 42.08L76.11 42.08L76.94 40.42ZM87.32 40.84L83.17 41.67L83.17 42.08L84 42.08Q87.73 41.67 87.73 40.84L87.32 40.84ZM89.39 53.29L88.98 50.8L89.81 50.8L89.81 53.29L89.39 53.29ZM95.2 53.7L94.79 53.7L94.79 54.53L95.2 56.19L95.62 56.19L95.62 55.36L95.2 53.7ZM91.88 54.53L90.64 54.95L90.64 55.78L91.88 55.36L91.88 54.53Z" />
	<path id="Statistics " fill="#000000" d="M109.7 44.9L109.7 46.82Q108.58 46.29 107.58 46.02Q106.59 45.76 105.66 45.76Q104.05 45.76 103.17 46.38Q102.3 47.01 102.3 48.16Q102.3 49.13 102.88 49.63Q103.46 50.11 105.08 50.42L106.28 50.66Q108.48 51.08 109.53 52.14Q110.58 53.2 110.58 54.98Q110.58 57.1 109.16 58.19Q107.74 59.28 105 59.28Q103.96 59.28 102.79 59.05Q101.63 58.81 100.38 58.36L100.38 56.32Q101.58 57 102.73 57.34Q103.88 57.68 105 57.68Q106.69 57.68 107.6 57.02Q108.52 56.35 108.52 55.12Q108.52 54.05 107.86 53.44Q107.2 52.84 105.7 52.54L104.5 52.3Q102.29 51.86 101.3 50.92Q100.32 49.99 100.32 48.32Q100.32 46.38 101.68 45.27Q103.04 44.16 105.44 44.16Q106.46 44.16 107.53 44.34Q108.59 44.53 109.7 44.9ZM99 60.71L112.33 60.71L112.33 61.59L99 61.59ZM113.55 44.96L115.36 44.96L115.36 48.06L119.06 48.06L119.06 49.46L115.36 49.46L115.36 55.4Q115.36 56.73 115.72 57.12Q116.09 57.5 117.21 57.5L119.06 57.5L119.06 59L117.21 59Q115.13 59 114.34 58.23Q113.55 57.45 113.55 55.4L113.55 49.46L112.23 49.46L112.23 48.06L113.55 48.06L113.55 44.96ZM111.7 60.71L119.93 60.71L119.93 61.59L111.7 61.59ZM128.18 53.5L126.39 53.5Q124.21 53.5 123.38 54Q122.54 54.5 122.54 55.7Q122.54 56.66 123.16 57.22Q123.79 57.78 124.88 57.78Q126.37 57.78 127.27 56.72Q128.18 55.66 128.18 53.9L128.18 53.5ZM129.98 52.76L129.98 59L128.18 59L128.18 57.34Q127.56 58.34 126.65 58.81Q125.73 59.28 124.4 59.28Q122.72 59.28 121.72 58.35Q120.74 57.4 120.74 55.82Q120.74 53.97 121.97 53.03Q123.21 52.1 125.66 52.1L128.18 52.1L128.18 51.92Q128.18 50.68 127.36 50.01Q126.55 49.32 125.07 49.32Q124.14 49.32 123.25 49.55Q122.36 49.77 121.54 50.22L121.54 48.56Q122.53 48.18 123.45 47.99Q124.38 47.8 125.26 47.8Q127.63 47.8 128.8 49.03Q129.98 50.26 129.98 52.76ZM119.54 60.71L132.41 60.71L132.41 61.59L119.54 61.59ZM133.65 44.96L135.46 44.96L135.46 48.06L139.16 48.06L139.16 49.46L135.46 49.46L135.46 55.4Q135.46 56.73 135.82 57.12Q136.19 57.5 137.31 57.5L139.16 57.5L139.16 59L137.31 59Q135.23 59 134.44 58.23Q133.65 57.45 133.65 55.4L133.65 49.46L132.33 49.46L132.33 48.06L133.65 48.06L133.65 44.96ZM131.79 60.71L140.03 60.71L140.03 61.59L131.79 61.59ZM141.52 59L141.52 48.06L143.32 48.06L143.32 59L141.52 59ZM141.52 46.08L141.52 43.8L143.32 43.8L143.32 46.08L141.52 46.08ZM139.63 60.71L145.47 60.71L145.47 61.59L139.63 61.59ZM154.05 48.38L154.05 50.08Q153.29 49.69 152.47 49.5Q151.65 49.3 150.77 49.3Q149.43 49.3 148.76 49.71Q148.09 50.12 148.09 50.94Q148.09 51.57 148.57 51.93Q149.05 52.28 150.49 52.6L151.11 52.74Q153.02 53.15 153.82 53.9Q154.63 54.64 154.63 55.98Q154.63 57.51 153.42 58.39Q152.22 59.28 150.11 59.28Q149.23 59.28 148.28 59.12Q147.33 58.94 146.28 58.6L146.28 56.74Q147.27 57.26 148.24 57.53Q149.21 57.78 150.15 57.78Q151.42 57.78 152.11 57.35Q152.79 56.91 152.79 56.12Q152.79 55.39 152.29 55Q151.8 54.61 150.13 54.24L149.51 54.1Q147.84 53.75 147.1 53.02Q146.35 52.29 146.35 51.02Q146.35 49.48 147.45 48.64Q148.54 47.8 150.55 47.8Q151.55 47.8 152.43 47.95Q153.31 48.09 154.05 48.38ZM145.19 60.71L156.13 60.71L156.13 61.59L145.19 61.59ZM157.47 44.96L159.27 44.96L159.27 48.06L162.97 48.06L162.97 49.46L159.27 49.46L159.27 55.4Q159.27 56.73 159.63 57.12Q160.01 57.5 161.13 57.5L162.97 57.5L162.97 59L161.13 59Q159.05 59 158.26 58.23Q157.47 57.45 157.47 55.4L157.47 49.46L156.15 49.46L156.15 48.06L157.47 48.06L157.47 44.96ZM155.61 60.71L163.85 60.71L163.85 61.59L155.61 61.59ZM165.34 59L165.34 48.06L167.13 48.06L167.13 59L165.34 59ZM165.34 46.08L165.34 43.8L167.13 43.8L167.13 46.08L165.34 46.08ZM163.45 60.71L169.29 60.71L169.29 61.59L163.45 61.59ZM178.77 48.48L178.77 50.16Q178 49.74 177.23 49.54Q176.47 49.32 175.69 49.32Q173.94 49.32 172.97 50.44Q172.01 51.54 172.01 53.54Q172.01 55.54 172.97 56.66Q173.94 57.76 175.69 57.76Q176.47 57.76 177.23 57.55Q178 57.34 178.77 56.92L178.77 58.58Q178.01 58.93 177.2 59.11Q176.4 59.28 175.49 59.28Q173.02 59.28 171.57 57.73Q170.11 56.18 170.11 53.54Q170.11 50.87 171.58 49.33Q173.05 47.8 175.61 47.8Q176.44 47.8 177.23 47.97Q178.02 48.14 178.77 48.48ZM169.01 60.71L180.56 60.71L180.56 61.59L169.01 61.59ZM188.86 48.38L188.86 50.08Q188.1 49.69 187.28 49.5Q186.46 49.3 185.58 49.3Q184.24 49.3 183.57 49.71Q182.91 50.12 182.91 50.94Q182.91 51.57 183.38 51.93Q183.86 52.28 185.31 52.6L185.92 52.74Q187.84 53.15 188.64 53.9Q189.45 54.64 189.45 55.98Q189.45 57.51 188.24 58.39Q187.04 59.28 184.93 59.28Q184.05 59.28 183.09 59.12Q182.14 58.94 181.09 58.6L181.09 56.74Q182.09 57.26 183.05 57.53Q184.02 57.78 184.97 57.78Q186.24 57.78 186.92 57.35Q187.6 56.91 187.6 56.12Q187.6 55.39 187.11 55Q186.62 54.61 184.95 54.24L184.32 54.1Q182.65 53.75 181.91 53.02Q181.17 52.29 181.17 51.02Q181.17 49.48 182.26 48.64Q183.36 47.8 185.37 47.8Q186.36 47.8 187.24 47.95Q188.12 48.09 188.86 48.38ZM180.01 60.71L190.95 60.71L190.95 61.59L180.01 61.59Z" />
</svg>